<?xml version="1.0" encoding="utf-8"?>
<!-- Generator: Adobe Illustrator 25.0.0, SVG Export Plug-In . SVG Version: 6.00 Build 0)  -->
<svg version="1.1" id="图层_1" xmlns="http://www.w3.org/2000/svg" x="0px" y="0px"
     viewBox="0 0 633.2 742.4" style="enable-background:new 0 0 633.2 742.4;" xml:space="preserve">
<style type="text/css">
	.st0{fill-rule:evenodd;clip-rule:evenodd;fill:#00AE9A;}
	.st1{fill-rule:evenodd;clip-rule:evenodd;fill:#008588;}
</style>
<g>
	<path class="st0" d="M625.4,13.6c-12.5,85.4-86.2,151.2-175,151.2H323.2c-30.3,0-58.1,10.4-80.3,27.8c-0.1-70.5,4-118.7,28.8-143.8
		c23.9-24.3,74.1-35.1,162.9-35.1H625.4z"/>
	<path class="st1" d="M450.4,577.6c88.8,0,162.5,65.8,175,151.2H172.6c-90.9,0-164.9-74-164.9-164.9v-64
		c14.6,16.1,32.3,29.3,53.3,39.9c62.3,31.3,149.8,37.8,262.2,37.8H450.4z"/>
	<path class="st0" d="M217.2,523.1C70.8,512.6,7.8,471.3,7.8,337.7V178.5c0-90.9,74-164.9,164.9-164.9h61.4
		c-44.9,46.6-43.7,121.7-42,234.9c0.4,25.3,0.8,51.5,0.8,80.5v118.1C192.8,475.5,201.9,501.7,217.2,523.1z"/>
	<path class="st1" d="M625.4,287.2c-12.5,85.4-86.2,151.2-175,151.2H323.2c-30.3,0-58.1,10.4-80.3,27.8
		c-0.1-70.5,4-118.7,28.8-143.8c23.9-24.3,74.1-35.1,162.9-35.1H625.4z"/>
</g>
</svg>
